<?xml version="1.0" encoding="UTF-8" standalone="no"?>
<!-- Created with Inkscape (http://www.inkscape.org/) -->

<svg
   xmlns:dc="http://purl.org/dc/elements/1.1/"
   xmlns:cc="http://creativecommons.org/ns#"
   xmlns:rdf="http://www.w3.org/1999/02/22-rdf-syntax-ns#"
   xmlns:svg="http://www.w3.org/2000/svg"
   xmlns="http://www.w3.org/2000/svg"
   xmlns:sodipodi="http://sodipodi.sourceforge.net/DTD/sodipodi-0.dtd"
   xmlns:inkscape="http://www.inkscape.org/namespaces/inkscape"
   version="1.1"
   id="svg2"
   xml:space="preserve"
   width="219.33333"
   height="189"
   viewBox="0 0 219.33333 189"
   sodipodi:docname="logo-docker.svg"
   inkscape:version="0.92.2 5c3e80d, 2017-08-06"><metadata
     id="metadata8"><rdf:RDF><cc:Work
         rdf:about=""><dc:format>image/svg+xml</dc:format><dc:type
           rdf:resource="http://purl.org/dc/dcmitype/StillImage" /><dc:title></dc:title></cc:Work></rdf:RDF></metadata><defs
     id="defs6"><clipPath
       clipPathUnits="userSpaceOnUse"
       id="clipPath36"><path
         d="M 0,141.75 H 164.5 V 0 H 0 Z"
         id="path34"
         inkscape:connector-curvature="0" /></clipPath><clipPath
       clipPathUnits="userSpaceOnUse"
       id="clipPath48"><path
         d="m 27.118,36.697 c 8.28,-6.905 23.033,-19.935 47.353,-12.496 v 0 C 70.03,25.408 59.553,29.446 52.524,40.969 v 0 C 41.486,37.139 29.602,36.586 27.118,36.697"
         id="path46"
         inkscape:connector-curvature="0" /></clipPath><clipPath
       clipPathUnits="userSpaceOnUse"
       id="clipPath58"><path
         d="M 0,141.75 H 164.5 V 0 H 0 Z"
         id="path56"
         inkscape:connector-curvature="0" /></clipPath><clipPath
       clipPathUnits="userSpaceOnUse"
       id="clipPath78"><path
         d="M 14.9409,84.8945 H 157.118 V 22.6757 H 14.9409 Z"
         id="path76"
         inkscape:connector-curvature="0" /></clipPath></defs><sodipodi:namedview
     pagecolor="#ffffff"
     bordercolor="#666666"
     borderopacity="1"
     objecttolerance="10"
     gridtolerance="10"
     guidetolerance="10"
     inkscape:pageopacity="0"
     inkscape:pageshadow="2"
     inkscape:window-width="804"
     inkscape:window-height="480"
     id="namedview4"
     showgrid="false"
     inkscape:zoom="1.2486772"
     inkscape:cx="109.66666"
     inkscape:cy="94.5"
     inkscape:window-x="0"
     inkscape:window-y="0"
     inkscape:window-maximized="0"
     inkscape:current-layer="g10" /><g
     id="g10"
     inkscape:groupmode="layer"
     inkscape:label="Moby"
     transform="matrix(1.3333333,0,0,-1.3333333,0,189)"><path
       d="M 58.371,86.632 H 43.488 v -13.53 h 14.883 z"
       style="fill:#19a0db;fill-opacity:1;fill-rule:evenodd;stroke:none"
       id="path12"
       inkscape:connector-curvature="0" /><path
       d="M 40.783,86.632 H 25.9 v -13.53 h 14.883 z"
       style="fill:#19a0db;fill-opacity:1;fill-rule:evenodd;stroke:none"
       id="path14"
       inkscape:connector-curvature="0" /><path
       d="M 75.959,86.632 H 61.077 v -13.53 h 14.882 z"
       style="fill:#19a0db;fill-opacity:1;fill-rule:evenodd;stroke:none"
       id="path16"
       inkscape:connector-curvature="0" /><path
       d="M 93.548,86.632 H 78.666 v -13.53 h 14.882 z"
       style="fill:#19a0db;fill-opacity:1;fill-rule:evenodd;stroke:none"
       id="path18"
       inkscape:connector-curvature="0" /><path
       d="M 111.137,86.632 H 96.254 v -13.53 h 14.883 z"
       style="fill:#19a0db;fill-opacity:1;fill-rule:evenodd;stroke:none"
       id="path20"
       inkscape:connector-curvature="0" /><path
       d="M 58.371,102.868 H 43.488 v -13.53 h 14.883 z"
       style="fill:#19a0db;fill-opacity:1;fill-rule:evenodd;stroke:none"
       id="path22"
       inkscape:connector-curvature="0" /><path
       d="M 75.959,102.868 H 61.077 v -13.53 h 14.882 z"
       style="fill:#19a0db;fill-opacity:1;fill-rule:evenodd;stroke:none"
       id="path24"
       inkscape:connector-curvature="0" /><path
       d="M 93.548,102.868 H 78.666 v -13.53 h 14.882 z"
       style="fill:#19a0db;fill-opacity:1;fill-rule:evenodd;stroke:none"
       id="path26"
       inkscape:connector-curvature="0" /><path
       d="M 93.548,119.104 H 78.666 v -13.53 h 14.882 z"
       style="fill:#19a0db;fill-opacity:1;fill-rule:evenodd;stroke:none"
       id="path28"
       inkscape:connector-curvature="0" /><g
       id="g30"><g
         id="g32"
         clip-path="url(#clipPath36)"><g
           id="g38"
           transform="translate(155.4648,82.4556)"><path
             d="m 0,0 c -3.055,2.056 -11.08,2.934 -16.915,1.362 -0.314,5.812 -3.312,10.71 -8.794,14.983 l -2.029,1.362 -1.354,-2.043 c -2.658,-4.036 -3.778,-9.413 -3.382,-14.302 0.313,-3.011 1.361,-6.397 3.382,-8.853 -1.549,-1.204 -6.363,-3.53 -12.852,-3.405 h -96.738 c -1.72,-10.216 1.226,-49.034 46.001,-49.034 33.241,0 60.554,14.949 73.06,46.309 4.115,-0.067 14.978,-0.737 20.295,9.535 0.129,0.172 1.352,2.724 1.352,2.724 z"
             style="fill:#19a0db;fill-opacity:1;fill-rule:evenodd;stroke:none"
             id="path40"
             inkscape:connector-curvature="0" /></g></g></g><g
       id="g42"><g
         id="g44"
         clip-path="url(#clipPath48)"><path
           d="M 20.353,15.212 H 81.237 V 47.733 H 20.353 Z"
           style="fill:#ffffff;fill-opacity:1;fill-rule:nonzero;stroke:none"
           id="path50"
           inkscape:connector-curvature="0" /></g></g><g
       id="g52"><g
         id="g54"
         clip-path="url(#clipPath58)"><g
           id="g60"
           transform="translate(51.2915,43.3525)"><path
             d="m 0,0 c -5.311,-3.031 -11.466,-4.733 -17.995,-4.733 -3.308,0 -6.512,0.439 -9.561,1.263 l 1.931,-3.245 c 2.468,-0.487 5.019,-0.743 7.63,-0.743 7.036,0 13.598,1.839 19.314,5.074 C 0.846,-1.601 0.406,-0.817 0,0"
             style="fill:#026fb7;fill-opacity:1;fill-rule:evenodd;stroke:none"
             id="path62"
             inkscape:connector-curvature="0" /></g><g
           id="g64"
           transform="translate(61.5869,45.1182)"><path
             d="M 0,0 C 2.598,0 4.704,2.12 4.704,4.735 4.704,7.351 2.598,9.471 0,9.471 -2.598,9.471 -4.704,7.351 -4.704,4.735 -4.704,2.12 -2.598,0 0,0"
             style="fill:#ffffff;fill-opacity:1;fill-rule:evenodd;stroke:none"
             id="path66"
             inkscape:connector-curvature="0" /></g><g
           id="g68"
           transform="translate(62.2949,51.1836)"><path
             d="m 0,0 c 0,0.435 0.214,0.804 0.528,1.053 -0.368,0.191 -0.78,0.309 -1.223,0.309 -1.484,0 -2.688,-1.212 -2.688,-2.706 0,-1.494 1.204,-2.706 2.688,-2.706 1.485,0 2.688,1.212 2.688,2.706 0,0.054 -0.013,0.104 -0.015,0.156 C 1.788,-1.29 1.582,-1.361 1.353,-1.361 0.605,-1.361 0,-0.752 0,0"
             style="fill:#54616c;fill-opacity:1;fill-rule:nonzero;stroke:none"
             id="path70"
             inkscape:connector-curvature="0" /></g><g
           id="g72"><g
             id="g74" /><g
             id="g86"><g
               clip-path="url(#clipPath78)"
               id="g84"
               style="opacity:0.05000311"><g
                 transform="translate(155.0742,82.6958)"
                 id="g82"><path
                   d="m 0,0 c -3.044,2.043 -11.368,3 -16.929,1.383 l -1.242,-1.75 c -18.13,-37.524 -40.818,-53.387 -71.818,-54.093 -33.807,0.092 -42.266,17.918 -44.648,42.223 h -5.412 c -0.697,-10.216 1.911,-47.783 47.033,-47.783 33.283,0 60.68,14.914 73.33,46.241 4.127,-0.068 15.627,-0.068 20.701,10.216 l 1.029,2.178 z"
                   style="fill:#000000;fill-opacity:1;fill-rule:evenodd;stroke:none"
                   id="path80"
                   inkscape:connector-curvature="0" /></g></g></g></g><path
           d="m 28.606,75.809 h 1.353 v 8.118 h -1.353 z"
           style="fill:#006fb7;fill-opacity:1;fill-rule:nonzero;stroke:none"
           id="path88"
           inkscape:connector-curvature="0" /><path
           d="m 32.665,75.809 h 1.353 v 8.118 h -1.353 z"
           style="fill:#006fb7;fill-opacity:1;fill-rule:nonzero;stroke:none"
           id="path90"
           inkscape:connector-curvature="0" /><path
           d="m 36.724,75.809 h 1.353 v 8.118 h -1.353 z"
           style="fill:#006fb7;fill-opacity:1;fill-rule:nonzero;stroke:none"
           id="path92"
           inkscape:connector-curvature="0" /><path
           d="m 46.194,75.809 h 1.353 v 8.118 h -1.353 z"
           style="fill:#006fb7;fill-opacity:1;fill-rule:nonzero;stroke:none"
           id="path94"
           inkscape:connector-curvature="0" /><path
           d="m 50.253,75.809 h 1.353 v 8.118 h -1.353 z"
           style="fill:#006fb7;fill-opacity:1;fill-rule:nonzero;stroke:none"
           id="path96"
           inkscape:connector-curvature="0" /><path
           d="m 54.313,75.809 h 1.353 v 8.118 h -1.353 z"
           style="fill:#006fb7;fill-opacity:1;fill-rule:nonzero;stroke:none"
           id="path98"
           inkscape:connector-curvature="0" /><path
           d="m 63.783,75.809 h 1.353 v 8.118 h -1.353 z"
           style="fill:#006fb7;fill-opacity:1;fill-rule:nonzero;stroke:none"
           id="path100"
           inkscape:connector-curvature="0" /><path
           d="m 67.842,75.809 h 1.353 v 8.118 h -1.353 z"
           style="fill:#006fb7;fill-opacity:1;fill-rule:nonzero;stroke:none"
           id="path102"
           inkscape:connector-curvature="0" /><path
           d="m 71.901,75.809 h 1.353 v 8.118 h -1.353 z"
           style="fill:#006fb7;fill-opacity:1;fill-rule:nonzero;stroke:none"
           id="path104"
           inkscape:connector-curvature="0" /><path
           d="m 81.371,75.809 h 1.354 v 8.118 h -1.354 z"
           style="fill:#006fb7;fill-opacity:1;fill-rule:nonzero;stroke:none"
           id="path106"
           inkscape:connector-curvature="0" /><path
           d="m 85.431,75.809 h 1.353 v 8.118 h -1.353 z"
           style="fill:#006fb7;fill-opacity:1;fill-rule:nonzero;stroke:none"
           id="path108"
           inkscape:connector-curvature="0" /><path
           d="m 89.489,75.809 h 1.354 v 8.118 h -1.354 z"
           style="fill:#006fb7;fill-opacity:1;fill-rule:nonzero;stroke:none"
           id="path110"
           inkscape:connector-curvature="0" /><path
           d="m 98.96,75.809 h 1.354 v 8.118 H 98.96 Z"
           style="fill:#006fb7;fill-opacity:1;fill-rule:nonzero;stroke:none"
           id="path112"
           inkscape:connector-curvature="0" /><path
           d="m 103.02,75.809 h 1.353 v 8.118 h -1.353 z"
           style="fill:#006fb7;fill-opacity:1;fill-rule:nonzero;stroke:none"
           id="path114"
           inkscape:connector-curvature="0" /><path
           d="m 107.078,75.809 h 1.353 v 8.118 h -1.353 z"
           style="fill:#006fb7;fill-opacity:1;fill-rule:nonzero;stroke:none"
           id="path116"
           inkscape:connector-curvature="0" /><path
           d="m 50.253,92.044 h 1.353 v 8.118 h -1.353 z"
           style="fill:#006fb7;fill-opacity:1;fill-rule:nonzero;stroke:none"
           id="path118"
           inkscape:connector-curvature="0" /><path
           d="m 54.313,92.044 h 1.353 v 8.118 h -1.353 z"
           style="fill:#006fb7;fill-opacity:1;fill-rule:nonzero;stroke:none"
           id="path120"
           inkscape:connector-curvature="0" /><path
           d="m 63.783,92.044 h 1.353 v 8.118 h -1.353 z"
           style="fill:#006fb7;fill-opacity:1;fill-rule:nonzero;stroke:none"
           id="path122"
           inkscape:connector-curvature="0" /><path
           d="m 67.842,92.044 h 1.353 v 8.118 h -1.353 z"
           style="fill:#006fb7;fill-opacity:1;fill-rule:nonzero;stroke:none"
           id="path124"
           inkscape:connector-curvature="0" /><path
           d="m 71.901,92.044 h 1.353 v 8.118 h -1.353 z"
           style="fill:#006fb7;fill-opacity:1;fill-rule:nonzero;stroke:none"
           id="path126"
           inkscape:connector-curvature="0" /><path
           d="m 81.371,92.044 h 1.354 v 8.118 h -1.354 z"
           style="fill:#006fb7;fill-opacity:1;fill-rule:nonzero;stroke:none"
           id="path128"
           inkscape:connector-curvature="0" /><path
           d="m 85.431,92.044 h 1.353 v 8.118 h -1.353 z"
           style="fill:#006fb7;fill-opacity:1;fill-rule:nonzero;stroke:none"
           id="path130"
           inkscape:connector-curvature="0" /><path
           d="m 89.489,92.044 h 1.354 v 8.118 h -1.354 z"
           style="fill:#006fb7;fill-opacity:1;fill-rule:nonzero;stroke:none"
           id="path132"
           inkscape:connector-curvature="0" /><path
           d="m 85.431,108.28 h 1.353 v 8.118 h -1.353 z"
           style="fill:#006fb7;fill-opacity:1;fill-rule:nonzero;stroke:none"
           id="path134"
           inkscape:connector-curvature="0" /><path
           d="m 81.371,108.28 h 1.354 v 8.118 h -1.354 z"
           style="fill:#006fb7;fill-opacity:1;fill-rule:nonzero;stroke:none"
           id="path136"
           inkscape:connector-curvature="0" /><path
           d="m 89.489,108.28 h 1.354 v 8.118 h -1.354 z"
           style="fill:#006fb7;fill-opacity:1;fill-rule:nonzero;stroke:none"
           id="path138"
           inkscape:connector-curvature="0" /><path
           d="m 46.194,92.044 h 1.353 v 8.118 h -1.353 z"
           style="fill:#006fb7;fill-opacity:1;fill-rule:nonzero;stroke:none"
           id="path140"
           inkscape:connector-curvature="0" /><g
           id="g142"
           transform="translate(155.124,80.4976)"><path
             d="m 0,0 c -0.167,-0.341 -0.31,-0.629 -0.419,-0.845 -0.06,-0.117 -0.107,-0.211 -0.238,-0.444 -2.009,-3.881 -4.959,-6.31 -8.7,-7.625 -2.961,-1.041 -5.646,-1.274 -9.669,-1.191 -0.04,0.001 -0.292,0.006 -0.703,0.014 l -0.932,0.015 -0.347,-0.869 C -32.844,-40.626 -58.69,-56.4 -92.812,-56.4 c -19.506,0 -32.234,7.387 -39.256,19.99 -2.71,4.864 -4.433,10.321 -5.241,15.907 -0.56,3.874 -0.636,7.633 -0.327,10.412 h 5.706 v -0.01 h 17.589 2.705 14.883 2.706 14.883 2.706 14.882 2.706 17.589 v 0.026 c 5.359,0.061 10.37,1.719 12.885,3.673 l 1.109,0.861 -0.894,1.086 c -1.675,2.036 -2.756,5.018 -3.079,8.126 -0.384,4.743 0.766,9.766 3.165,13.408 l 0.601,0.906 0.863,-0.579 c 5.252,-4.104 7.948,-8.661 8.235,-13.95 l 0.089,-1.676 1.611,0.434 C -11.428,3.633 -3.714,2.94 -0.884,1.035 L 0.162,0.333 C 0.114,0.233 0.066,0.136 0,0 m -129.224,6.135 h 14.883 V -7.366 h -14.883 z m 17.588,0 h 14.883 V -7.366 h -14.883 z m 0,16.236 h 14.883 V 8.841 h -14.883 z M -94.047,6.135 h 14.883 V -7.366 h -14.883 z m 0,16.236 h 14.883 V 8.841 H -94.047 Z M -76.458,6.135 h 14.882 V -7.366 h -14.882 z m 0,16.236 h 14.882 V 8.841 h -14.882 z m 0,16.235 h 14.882 V 25.077 H -76.458 Z M -58.87,6.135 h 14.883 V -7.366 H -58.87 Z M 0.62,3.3 c -3.251,2.188 -10.661,3.012 -16.467,1.9 -0.749,5.473 -3.818,10.223 -9.203,14.419 l -3.195,2.144 -2.104,-3.177 c -2.751,-4.175 -4.039,-9.807 -3.604,-15.167 0.319,-3.074 1.269,-6.039 2.794,-8.387 -2.303,-1.283 -6.082,-2.334 -10.122,-2.388 V 8.841 H -58.87 v 13.53 2.706 16.235 H -79.164 V 25.077 h -14.883 -2.706 -17.588 V 8.841 H -131.93 V -7.367 h -6.883 -1.143 l -0.191,-1.134 c -0.527,-3.129 -0.519,-7.693 0.161,-12.395 0.853,-5.9 2.676,-11.675 5.558,-16.847 7.504,-13.469 21.138,-21.382 41.616,-21.382 34.844,0 61.536,16.088 73.962,46.292 4.198,-0.075 7.1,0.192 10.385,1.347 4.353,1.53 7.843,4.397 10.183,8.89 0.131,0.217 0.322,0.601 0.729,1.433 0.148,0.302 0.304,0.624 0.46,0.946 0.054,0.113 0.105,0.217 0.207,0.43 l 0.512,1.068 z"
             style="fill:#006fb7;fill-opacity:1;fill-rule:nonzero;stroke:none"
             id="path144"
             inkscape:connector-curvature="0" /></g><g
           id="g146"
           transform="translate(106.7197,26.8906)"><path
             d="m 0,0 h 0.216 c 0.252,0 0.456,0.084 0.456,0.288 0,0.18 -0.132,0.3 -0.42,0.3 C 0.132,0.588 0.048,0.576 0,0.564 Z m -0.012,-1.115 h -0.456 v 1.967 c 0.18,0.036 0.432,0.06 0.756,0.06 0.372,0 0.539,-0.06 0.684,-0.144 0.107,-0.083 0.191,-0.24 0.191,-0.432 0,-0.216 -0.168,-0.384 -0.407,-0.455 v -0.025 c 0.191,-0.072 0.3,-0.215 0.359,-0.479 0.061,-0.3 0.096,-0.42 0.145,-0.492 H 0.768 c -0.06,0.072 -0.096,0.252 -0.157,0.48 -0.035,0.216 -0.155,0.312 -0.407,0.312 h -0.216 z m -1.212,1.032 c 0,-0.876 0.649,-1.571 1.536,-1.571 0.864,0 1.499,0.695 1.499,1.558 0,0.876 -0.635,1.583 -1.511,1.583 -0.875,0 -1.524,-0.707 -1.524,-1.57 m 3.538,0 c 0,-1.116 -0.875,-1.991 -2.014,-1.991 -1.127,0 -2.027,0.875 -2.027,1.991 0,1.091 0.9,1.967 2.027,1.967 1.139,0 2.014,-0.876 2.014,-1.967"
             style="fill:#006fb7;fill-opacity:1;fill-rule:nonzero;stroke:none"
             id="path148"
             inkscape:connector-curvature="0" /></g></g></g></g></svg>