<?xml version="1.0" encoding="UTF-8" standalone="no"?>
<svg
   xmlns:dc="http://purl.org/dc/elements/1.1/"
   xmlns:cc="http://creativecommons.org/ns#"
   xmlns:rdf="http://www.w3.org/1999/02/22-rdf-syntax-ns#"
   xmlns:svg="http://www.w3.org/2000/svg"
   xmlns="http://www.w3.org/2000/svg"
   xmlns:sodipodi="http://sodipodi.sourceforge.net/DTD/sodipodi-0.dtd"
   xmlns:inkscape="http://www.inkscape.org/namespaces/inkscape"
   id="tracés_techniques"
   data-name="tracés techniques"
   viewBox="0 0 31.154243 5.4712487"
   version="1.1"
   sodipodi:docname="logo-reana.svg"
   inkscape:version="0.92.2 5c3e80d, 2017-08-06"
   width="31.154243"
   height="5.4712486">
  <metadata
     id="metadata5153">
    <rdf:RDF>
      <cc:Work
         rdf:about="">
        <dc:format>image/svg+xml</dc:format>
        <dc:type
           rdf:resource="http://purl.org/dc/dcmitype/StillImage" />
        <dc:title>1</dc:title>
      </cc:Work>
    </rdf:RDF>
  </metadata>
  <sodipodi:namedview
     pagecolor="#ffffff"
     bordercolor="#666666"
     borderopacity="1"
     objecttolerance="10"
     gridtolerance="10"
     guidetolerance="10"
     inkscape:pageopacity="0"
     inkscape:pageshadow="2"
     inkscape:window-width="2437"
     inkscape:window-height="1149"
     id="namedview5151"
     showgrid="true"
     inkscape:zoom="60.92268"
     inkscape:cx="15.577122"
     inkscape:cy="2.7356243"
     inkscape:window-x="229"
     inkscape:window-y="0"
     inkscape:window-maximized="0"
     inkscape:current-layer="tracés_techniques"
     showguides="true"
     inkscape:guide-bbox="true"
     inkscape:measure-start="134.552,54.4832"
     inkscape:measure-end="136.223,54.4832"
     fit-margin-top="0"
     fit-margin-left="0"
     fit-margin-right="0"
     fit-margin-bottom="0">
    <sodipodi:guide
       position="2.9723621,5.4708701"
       orientation="0,1"
       id="guide22901"
       inkscape:locked="false" />
    <sodipodi:guide
       position="5.144242,0.093058056"
       orientation="0,1"
       id="guide22903"
       inkscape:locked="false" />
    <inkscape:grid
       type="xygrid"
       id="grid27628"
       originx="-221.7115"
       originy="-106.07808" />
    <sodipodi:guide
       position="1.4294921,5.4708701"
       orientation="1,0"
       id="guide27644"
       inkscape:locked="false" />
    <sodipodi:guide
       position="11.869313,2.1297651"
       orientation="0,1"
       id="guide27652"
       inkscape:locked="false" />
  </sodipodi:namedview>
  <defs
     id="defs5015">
    <style
       id="style5013">.cls-1{fill:#fff;}.cls-2,.cls-9{isolation:isolate;}.cls-3{fill:#2d3e51;}.cls-4{fill:#3d97d3;}.cls-5{fill:#ecf0f1;}.cls-6,.cls-7,.cls-8{fill:none;stroke:#2d3e51;stroke-width:1.04px;}.cls-6,.cls-8{stroke-miterlimit:10;}.cls-7,.cls-8{stroke-linecap:round;}.cls-7{stroke-linejoin:round;}.cls-9{fill:#bec3c7;opacity:0.3;}</style>
    <clipPath
       clipPathUnits="userSpaceOnUse"
       id="clipPath27566">
      <rect
         style="opacity:1;fill:#ff5555;fill-opacity:0.4627451;stroke:none;stroke-width:1.20000005;stroke-miterlimit:4;stroke-dasharray:none;stroke-opacity:1"
         id="rect27568"
         width="10.767135"
         height="4.3520308"
         x="1.9026542"
         y="153.29659"
         transform="rotate(-45)" />
    </clipPath>
    <clipPath
       clipPathUnits="userSpaceOnUse"
       id="clipPath27602">
      <path
         style="opacity:1;vector-effect:none;fill:none;fill-opacity:1;stroke:#000000;stroke-width:0.01333333;stroke-linecap:butt;stroke-linejoin:miter;stroke-miterlimit:4;stroke-dasharray:none;stroke-dashoffset:0;stroke-opacity:1"
         d="m 119.05078,106.96094 5.51172,-1.47266 -4.52344,-3.01562 -2.9375,2.98437 0.0664,2.46094 2.375,1.42969 4.39453,-1.08203 0.0391,-1.30469 z"
         id="path27604"
         inkscape:connector-curvature="0"
         sodipodi:nodetypes="ccccccccc" />
    </clipPath>
    <clipPath
       clipPathUnits="userSpaceOnUse"
       id="clipPath27620">
      <path
         style="opacity:1;vector-effect:none;fill:none;fill-opacity:1;stroke:#000000;stroke-width:0.01333333;stroke-linecap:butt;stroke-linejoin:miter;stroke-miterlimit:4;stroke-dasharray:none;stroke-dashoffset:0;stroke-opacity:1"
         d="m 119.05078,106.96094 4.25134,-1.62202 -2.20803,-2.63751 -2.58193,0.66696 -1.42487,2.55667 0.39917,3.20847 3.87542,0.5659 1.45013,-1.3137 0.88423,-1.65224 z"
         id="path27622"
         inkscape:connector-curvature="0" />
    </clipPath>
    <clipPath
       clipPathUnits="userSpaceOnUse"
       id="clipPath27656">
      <path
         style="opacity:1;vector-effect:none;fill:none;fill-opacity:1;stroke:#000000;stroke-width:0.01333333;stroke-linecap:butt;stroke-linejoin:miter;stroke-miterlimit:4;stroke-dasharray:none;stroke-dashoffset:0;stroke-opacity:1"
         d="m 123.93712,106.83329 h 1.9023 l -2.35014,2.44464 -4.23601,-0.58753 0.87514,-5.60008 5.3741,0.22598 -0.0288,2.95 z"
         id="path27658"
         inkscape:connector-curvature="0" />
    </clipPath>
  </defs>
  <title
     id="title5017">1</title>
  <path
     id="path9431"
     class="cls-3"
     d="m 31.154243,1.9281906 v 3.4499996 h -1.66 v -0.61 a 1.91,1.91 0 0 1 -1.62,0.69 1.64,1.64 0 0 1 -1.82,-1.6599996 c 0,-1 0.72,-1.59 2,-1.6 h 1.39 v -0.08 c 0,-0.52 -0.34,-0.83 -1,-0.83 a 3.79,3.79 0 0 0 -1.58,0.44 l -0.48,-1.12000003 a 5.6,5.6 0 0 1 2.45,-0.6 c 1.46,0 2.3,0.72 2.31,1.92000003 z m -1.67,1.66 v -0.48 h -1.07 c -0.51,0 -0.76,0.18 -0.76,0.57 0,0.3899996 0.27,0.6299996 0.74,0.6299996 a 1.07,1.07 0 0 0 1.09,-0.7199996 z"
     inkscape:connector-curvature="0"
     style="fill:#2d3e51" />
  <path
     style="fill:#2d3e51"
     inkscape:connector-curvature="0"
     d="m 25.374243,2.0381906 v 3.34 h -1.68 v -2.87 a 0.91,0.91 0 0 0 -0.94,-1 1.09,1.09 0 0 0 -1.08,1.07 v 2.8 h -1.7 V 0.08819055 h 1.7 v 0.86 a 2,2 0 0 1 1.77,-0.94 1.86,1.86 0 0 1 1.93,2.00000005 z"
     class="cls-3"
     id="path9897" />
  <rect
     style="opacity:1;fill:#ff3336;fill-opacity:1;stroke:none;stroke-width:2.01733232;stroke-miterlimit:4;stroke-dasharray:none;stroke-opacity:1"
     id="rect22907"
     width="1.4640864"
     height="5.3778119"
     x="6.03444"
     y="0.046863951" />
  <ellipse
     style="opacity:1;fill:none;fill-opacity:1;stroke:#ff3336;stroke-width:1.1640048;stroke-miterlimit:4;stroke-dasharray:none;stroke-opacity:1"
     id="path27554"
     cx="117.7763"
     cy="106.19373"
     rx="2.1121941"
     ry="2.114804"
     clip-path="url(#clipPath27566)"
     transform="matrix(1.108184,0,0,1,-121.46577,-103.4918)" />
  <ellipse
     ry="2.114804"
     rx="2.1121941"
     cy="106.17868"
     cx="120.36644"
     id="ellipse27558"
     style="opacity:1;fill:none;fill-opacity:1;stroke:#ff3336;stroke-width:1.1640048;stroke-miterlimit:4;stroke-dasharray:none;stroke-opacity:1"
     clip-path="url(#clipPath27620)"
     transform="matrix(1.01,0,0,1.01,-109.87751,-104.51669)" />
  <rect
     y="7.9235907"
     x="-6.9986925"
     height="4.1280079"
     width="1.1238328"
     id="rect27570"
     style="opacity:1;fill:#ff3336;fill-opacity:1;stroke:none;stroke-width:1.54850435;stroke-miterlimit:4;stroke-dasharray:none;stroke-opacity:1"
     transform="rotate(-111)" />
  <path
     style="opacity:1;vector-effect:none;fill:none;fill-opacity:1;stroke:#2d3e51;stroke-width:0.528;stroke-linecap:butt;stroke-linejoin:miter;stroke-miterlimit:4;stroke-dasharray:none;stroke-dashoffset:0;stroke-opacity:1"
     d="m 0.96794677,3.8269773 c 1.64051003,-2.01085 1.64051003,-1.97835 1.64051003,-1.97835 l 1.64051,1.97835 v 0"
     id="path27638"
     inkscape:connector-curvature="0" />
  <rect
     style="opacity:1;fill:#ff3336;fill-opacity:1;stroke:none;stroke-width:0.01143166;stroke-miterlimit:4;stroke-dasharray:none;stroke-opacity:1"
     id="rect27636"
     width="1.7147499"
     height="1.7147499"
     x="1.7147446"
     y="0.00037477099" />
  <rect
     y="3.6634378"
     x="0"
     height="1.7147499"
     width="1.7147499"
     id="rect27640"
     style="opacity:1;fill:#ff3336;fill-opacity:1;stroke:none;stroke-width:0.01143166;stroke-miterlimit:4;stroke-dasharray:none;stroke-opacity:1" />
  <rect
     style="opacity:1;fill:#ff3336;fill-opacity:1;stroke:none;stroke-width:0.01143166;stroke-miterlimit:4;stroke-dasharray:none;stroke-opacity:1"
     id="rect27642"
     width="1.7147499"
     height="1.7147499"
     x="3.4294968"
     y="3.6634378" />
  <path
     style="fill:#2d3e51"
     inkscape:connector-curvature="0"
     d="m 19.162272,1.9313109 v 3.4499996 h -1.66 v -0.61 a 1.91,1.91 0 0 1 -1.62,0.69 1.64,1.64 0 0 1 -1.82,-1.6599996 c 0,-1 0.72,-1.59 2,-1.6 h 1.39 v -0.08 c 0,-0.52 -0.34,-0.83 -1,-0.83 a 3.79,3.79 0 0 0 -1.58,0.44 l -0.48,-1.12000003 a 5.6,5.6 0 0 1 2.45,-0.6 c 1.46,0 2.3,0.72 2.31,1.92000003 z m -1.67,1.66 v -0.48 h -1.07 c -0.51,0 -0.76,0.18 -0.76,0.57 0,0.3899996 0.27,0.6299996 0.74,0.6299996 a 1.07,1.07 0 0 0 1.09,-0.7199996 z"
     class="cls-3"
     id="path9863" />
</svg>
